<svg width="17" height="15" viewBox="0 0 17 15" fill="none" xmlns="http://www.w3.org/2000/svg">
<g clip-path="url(#clip0_3_150)">
<path d="M14.4104 3.85415C14.2246 3.85415 14.074 3.9869 14.074 4.15055V14.0065C13.75 13.7789 13.3491 13.6548 12.9318 13.6548C12.4726 13.6548 12.0329 13.8052 11.6941 14.0784L11.4533 14.2726L11.2124 14.0784C10.8737 13.8052 10.4341 13.6548 9.97472 13.6548C9.51534 13.6548 9.07583 13.8052 8.73704 14.0784L8.49611 14.2726L8.25531 14.0784C7.91652 13.8052 7.47701 13.6548 7.01763 13.6548C6.55824 13.6548 6.11874 13.8052 5.77995 14.0784L5.53902 14.2726L5.29821 14.0784C4.95942 13.8052 4.51992 13.6548 4.06054 13.6548C3.64326 13.6548 3.24235 13.7789 2.91837 14.0065V0.563279H14.0738V1.80119C14.0738 1.96484 14.2245 2.09759 14.4103 2.09759C14.5961 2.09759 14.7469 1.96484 14.7469 1.80119V0.266991C14.7469 0.10334 14.5961 -0.0292969 14.4103 -0.0292969H2.58206C2.39622 -0.0292969 2.24561 0.10334 2.24561 0.266991V14.6744C2.24561 14.7919 2.32436 14.8983 2.44651 14.9456C2.56854 14.9929 2.71084 14.9722 2.80934 14.8929L3.27744 14.5155C3.72396 14.1555 4.39738 14.1555 4.8439 14.5155L5.31199 14.8929C5.44051 14.9966 5.63778 14.9966 5.76644 14.8929L6.23453 14.5155C6.68105 14.1555 7.35447 14.1555 7.80099 14.5155L8.26895 14.8929C8.3976 14.9966 8.59487 14.9966 8.72353 14.8929L9.19149 14.5155C9.63814 14.1555 10.3116 14.1555 10.7581 14.5155L11.226 14.8929C11.3547 14.9966 11.552 14.9966 11.6806 14.8929L12.1486 14.5155C12.5952 14.1555 13.2687 14.1555 13.7152 14.5155L14.1831 14.8929C14.2464 14.944 14.3279 14.9707 14.4104 14.9707C14.4563 14.9707 14.5024 14.9625 14.546 14.9456C14.668 14.8982 14.7469 14.7919 14.7469 14.6744V4.15055C14.7469 3.9869 14.5963 3.85415 14.4104 3.85415Z" fill="white"/>
<path d="M13.3457 1.51508C13.3457 1.35143 13.1951 1.2188 13.0092 1.2188H8.29284C8.10701 1.2188 7.95639 1.35143 7.95639 1.51508V3.90576C7.95639 4.0693 8.10701 4.20205 8.29284 4.20205H13.0092C13.1951 4.20205 13.3457 4.0693 13.3457 3.90576V1.51508ZM12.6728 3.60947H8.62929V1.81137H12.6728V3.60947Z" fill="white"/>
<path d="M3.83585 1.84422H7.11587C7.30171 1.84422 7.45245 1.71159 7.45245 1.54794C7.45245 1.38429 7.30171 1.25165 7.11587 1.25165H3.83585C3.65001 1.25165 3.49927 1.38429 3.49927 1.54794C3.49927 1.71159 3.65001 1.84422 3.83585 1.84422Z" fill="white"/>
<path d="M3.83585 3.00672H6.14018C6.32602 3.00672 6.47663 2.87408 6.47663 2.71043C6.47663 2.54678 6.32602 2.41414 6.14018 2.41414H3.83585C3.65001 2.41414 3.49927 2.54678 3.49927 2.71043C3.49927 2.87408 3.65001 3.00672 3.83585 3.00672Z" fill="white"/>
<path d="M3.83585 4.20204H6.40932C6.59515 4.20204 6.74577 4.06929 6.74577 3.90575C6.74577 3.7421 6.59515 3.60947 6.40932 3.60947H3.83585C3.65001 3.60947 3.49927 3.7421 3.49927 3.90575C3.49927 4.06929 3.65001 4.20204 3.83585 4.20204Z" fill="white"/>
<path d="M3.83585 6.121H10.8171C11.0029 6.121 11.1535 5.98824 11.1535 5.82459C11.1535 5.66106 11.0029 5.52831 10.8171 5.52831H3.83585C3.65001 5.52831 3.49927 5.66106 3.49927 5.82459C3.49927 5.98824 3.65001 6.121 3.83585 6.121Z" fill="white"/>
<path d="M13.0093 6.63416H3.83585C3.65001 6.63416 3.49927 6.76691 3.49927 6.93056C3.49927 7.09409 3.65001 7.22685 3.83585 7.22685H13.0093C13.1951 7.22685 13.3457 7.09409 13.3457 6.93056C13.3457 6.76691 13.1951 6.63416 13.0093 6.63416Z" fill="white"/>
<path d="M3.83585 8.33268H5.73642C5.92225 8.33268 6.07287 8.19993 6.07287 8.03628C6.07287 7.87274 5.92225 7.73999 5.73642 7.73999H3.83585C3.65001 7.73999 3.49927 7.87274 3.49927 8.03628C3.49927 8.19993 3.65001 8.33268 3.83585 8.33268Z" fill="white"/>
<path d="M13.0093 8.84584H3.83585C3.65001 8.84584 3.49927 8.97848 3.49927 9.14213C3.49927 9.30578 3.65001 9.43842 3.83585 9.43842H13.0093C13.1951 9.43842 13.3457 9.30578 13.3457 9.14213C13.3457 8.97848 13.1951 8.84584 13.0093 8.84584Z" fill="white"/>
<path d="M3.83585 10.5443H7.38514C7.57097 10.5443 7.72159 10.4116 7.72159 10.248C7.72159 10.0843 7.57097 9.95169 7.38514 9.95169H3.83585C3.65001 9.95169 3.49927 10.0843 3.49927 10.248C3.49927 10.4116 3.65001 10.5443 3.83585 10.5443Z" fill="white"/>
<path d="M13.0093 11.0575H7.38513C7.19929 11.0575 7.04868 11.1902 7.04868 11.3538C7.04868 11.5175 7.19929 11.6501 7.38513 11.6501H13.0093C13.1951 11.6501 13.3457 11.5175 13.3457 11.3538C13.3457 11.1902 13.1951 11.0575 13.0093 11.0575Z" fill="white"/>
<path d="M3.83585 11.6501H5.97189C6.15773 11.6501 6.30834 11.5175 6.30834 11.3538C6.30834 11.1902 6.15773 11.0575 5.97189 11.0575H3.83585C3.65001 11.0575 3.49927 11.1902 3.49927 11.3538C3.49927 11.5175 3.65001 11.6501 3.83585 11.6501Z" fill="white"/>
<path d="M3.83585 12.756H13.0093C13.1951 12.756 13.3457 12.6233 13.3457 12.4597C13.3457 12.296 13.1951 12.1634 13.0093 12.1634H3.83585C3.65001 12.1634 3.49927 12.296 3.49927 12.4597C3.49927 12.6233 3.65001 12.756 3.83585 12.756Z" fill="white"/>
<path d="M8.87103 10.5502C8.91301 10.5502 8.95563 10.5432 8.99696 10.5286C9.16927 10.4672 9.25244 10.2945 9.18279 10.1428L9.17746 10.131C9.10781 9.97938 8.91171 9.90614 8.73939 9.96736C8.56707 10.0287 8.4839 10.2014 8.55355 10.3531L8.55888 10.3649C8.6119 10.4802 8.73783 10.5502 8.87103 10.5502Z" fill="white"/>
<path d="M14.7311 2.85634C14.6615 2.70471 14.4654 2.63135 14.2931 2.69269C14.1207 2.75403 14.0376 2.92672 14.1071 3.07847L14.1126 3.09026C14.1656 3.20562 14.2915 3.27565 14.4247 3.27565C14.4667 3.27565 14.5093 3.26867 14.5506 3.25391C14.723 3.19268 14.8061 3.01988 14.7365 2.86813L14.7311 2.85634Z" fill="white"/>
</g>
<defs>
<clipPath id="clip0_3_150">
<rect width="17" height="15" fill="white"/>
</clipPath>
</defs>
</svg>
