<svg width="30" height="30" viewBox="0 0 30 30" fill="none" xmlns="http://www.w3.org/2000/svg">
<g clip-path="url(#clip0_4_175)">
<path d="M22 20.75H20V18.25C20 17.147 19.103 16.25 18 16.25C16.897 16.25 16 17.147 16 18.25V20.75H14H11.5H0.5C0.2235 20.75 0 20.974 0 21.25V29.25C0 29.526 0.2235 29.75 0.5 29.75H11.5H14H22C22.827 29.75 23.5 29.077 23.5 28.25V22.25C23.5 21.423 22.827 20.75 22 20.75ZM11 28.75H1V21.75H11V28.75ZM13.5 28.75H12V21.75H13.5V28.75ZM22.5 28.25C22.5 28.5255 22.276 28.75 22 28.75H14.5V21.75H16.5C16.7765 21.75 17 21.526 17 21.25V18.25C17 17.6985 17.4485 17.25 18 17.25C18.5515 17.25 19 17.6985 19 18.25V21.25C19 21.526 19.2235 21.75 19.5 21.75H22C22.276 21.75 22.5 21.9745 22.5 22.25V28.25Z" fill="white"/>
<path d="M10 26.75H9V27.75H10V26.75Z" fill="white"/>
<path d="M29.5 18.25C28.1215 18.25 27 17.1285 27 15.75C27 15.474 26.7765 15.25 26.5 15.25C26.2235 15.25 26 15.474 26 15.75C26 17.1285 24.8785 18.25 23.5 18.25C23.2235 18.25 23 18.474 23 18.75C23 19.026 23.2235 19.25 23.5 19.25C24.8785 19.25 26 20.3715 26 21.75C26 22.026 26.2235 22.25 26.5 22.25C26.7765 22.25 27 22.026 27 21.75C27 20.3715 28.1215 19.25 29.5 19.25C29.7765 19.25 30 19.026 30 18.75C30 18.474 29.7765 18.25 29.5 18.25ZM26.5 19.9485C26.2045 19.458 25.7915 19.0455 25.3015 18.75C25.7915 18.4545 26.205 18.0415 26.5 17.5515C26.7955 18.042 27.2085 18.4545 27.6985 18.75C27.2085 19.0455 26.7955 19.4585 26.5 19.9485Z" fill="white"/>
<path d="M12.5 0.25C9.743 0.25 7.5 2.493 7.5 5.25C7.5 8.007 9.743 10.25 12.5 10.25C15.257 10.25 17.5 8.007 17.5 5.25C17.5 2.493 15.257 0.25 12.5 0.25ZM12.5 9.25C10.2945 9.25 8.5 7.4555 8.5 5.25C8.5 3.0445 10.2945 1.25 12.5 1.25C14.7055 1.25 16.5 3.0445 16.5 5.25C16.5 7.4555 14.7055 9.25 12.5 9.25Z" fill="white"/>
<path d="M12.5 2.25C10.8455 2.25 9.5 3.5955 9.5 5.25C9.5 6.9045 10.8455 8.25 12.5 8.25C14.1545 8.25 15.5 6.9045 15.5 5.25C15.5 3.5955 14.1545 2.25 12.5 2.25ZM12.5 7.25C11.397 7.25 10.5 6.353 10.5 5.25C10.5 4.147 11.397 3.25 12.5 3.25C13.603 3.25 14.5 4.147 14.5 5.25C14.5 6.353 13.603 7.25 12.5 7.25Z" fill="white"/>
<path d="M4 11.25C2.0705 11.25 0.5 12.82 0.5 14.75C0.5 16.68 2.0705 18.25 4 18.25C5.9295 18.25 7.5 16.68 7.5 14.75C7.5 12.82 5.9295 11.25 4 11.25ZM4 17.25C2.6215 17.25 1.5 16.1285 1.5 14.75C1.5 13.3715 2.6215 12.25 4 12.25C5.3785 12.25 6.5 13.3715 6.5 14.75C6.5 16.1285 5.3785 17.25 4 17.25Z" fill="white"/>
<path d="M25 3.25C22.243 3.25 20 5.493 20 8.25C20 11.007 22.243 13.25 25 13.25C27.757 13.25 30 11.007 30 8.25C30 5.493 27.757 3.25 25 3.25ZM25 12.25C22.7945 12.25 21 10.4555 21 8.25C21 6.0445 22.7945 4.25 25 4.25C27.2055 4.25 29 6.0445 29 8.25C29 10.4555 27.2055 12.25 25 12.25Z" fill="white"/>
<path d="M25 5.25C23.3455 5.25 22 6.5955 22 8.25C22 9.9045 23.3455 11.25 25 11.25C26.6545 11.25 28 9.9045 28 8.25C28 6.5955 26.6545 5.25 25 5.25ZM25 10.25C23.897 10.25 23 9.353 23 8.25C23 7.147 23.897 6.25 25 6.25C26.103 6.25 27 7.147 27 8.25C27 9.353 26.103 10.25 25 10.25Z" fill="white"/>
<path d="M8.5 15.25V16.25C10.4295 16.25 12 17.82 12 19.75H13C13 17.269 10.9815 15.25 8.5 15.25Z" fill="white"/>
<path d="M14 16.75H15C15 14.82 16.5705 13.25 18.5 13.25V12.25C16.0185 12.25 14 14.269 14 16.75Z" fill="white"/>
<path d="M7 9.75V10.75C9.4815 10.75 11.5 12.769 11.5 15.25H12.5C12.5 12.2175 10.0325 9.75 7 9.75Z" fill="white"/>
<path d="M2.5 3.75H1.5V4.75H2.5V3.75Z" fill="white"/>
<path d="M20 1.25H19V2.25H20V1.25Z" fill="white"/>
<path d="M5 8.25H4V9.25H5V8.25Z" fill="white"/>
<path d="M27.5 24.75H26.5V25.75H27.5V24.75Z" fill="white"/>
<path d="M22 14.25H21V15.25H22V14.25Z" fill="white"/>
<path d="M15.5 10.75H14.5V11.75H15.5V10.75Z" fill="white"/>
<path d="M19 8.75H18V9.75H19V8.75Z" fill="white"/>
<path d="M9 17.75H8V18.75H9V17.75Z" fill="white"/>
</g>
<defs>
<clipPath id="clip0_4_175">
<rect width="30" height="30" fill="white"/>
</clipPath>
</defs>
</svg>
