<svg width="27" height="27" viewBox="0 0 27 27" fill="none" xmlns="http://www.w3.org/2000/svg">
<path d="M13.5 6.38086C8.69658 6.38086 4.79883 10.3264 4.79883 15.1348C4.79883 19.9326 8.70412 23.8359 13.5 23.8359C18.2979 23.8359 22.2012 19.9306 22.2012 15.1348C22.2012 10.3573 18.3288 6.38086 13.5 6.38086ZM13.5 14.3438C13.9362 14.3438 14.291 14.6986 14.291 15.1348C14.291 15.5709 13.9362 15.9258 13.5 15.9258C13.0638 15.9258 12.709 15.5709 12.709 15.1348C12.709 14.6986 13.0638 14.3438 13.5 14.3438ZM19.0597 19.5758L18.5319 19.048C18.223 18.7391 17.7221 18.7391 17.4132 19.048C17.1043 19.3569 17.1043 19.8577 17.4132 20.1666L17.9411 20.6945C16.9168 21.5144 15.6621 22.0575 14.291 22.2097V21.4629C14.291 21.026 13.9369 20.6719 13.5 20.6719C13.0631 20.6719 12.709 21.026 12.709 21.4629V22.2097C11.3379 22.0575 10.0832 21.5144 9.05892 20.6945L9.58679 20.1666C9.89571 19.8577 9.89571 19.3569 9.58679 19.048C9.27793 18.7391 8.77706 18.7391 8.46814 19.048L7.94027 19.5758C7.12041 18.5515 6.57729 17.2969 6.42505 15.9258H7.17188C7.60873 15.9258 7.96289 15.5716 7.96289 15.1348C7.96289 14.6979 7.60873 14.3438 7.17188 14.3438H6.42437C6.57629 12.9553 7.12315 11.6851 7.94907 10.6498L8.46814 11.1688C8.777 11.4777 9.27782 11.4777 9.58679 11.1688C9.89566 10.8599 9.89566 10.3591 9.58679 10.0502L9.0653 9.52868C10.0884 8.7056 11.3408 8.16049 12.709 8.0074V12.8978C11.7883 13.2243 11.127 14.1035 11.127 15.1348C11.127 15.5007 11.2103 15.8474 11.3589 16.1572L10.6665 16.8496C10.3576 17.1585 10.3576 17.6593 10.6665 17.9682C10.821 18.1227 11.0234 18.1999 11.2258 18.1999C11.4282 18.1999 11.6307 18.1226 11.7851 17.9682L12.4775 17.2758C12.7873 17.4244 13.1341 17.5078 13.5 17.5078C14.8085 17.5078 15.873 16.4433 15.873 15.1348C15.873 14.1035 15.2117 13.2243 14.291 12.8978V8.0074C15.6592 8.16049 16.9116 8.7056 17.9347 9.52868L17.4132 10.0502C17.1043 10.3591 17.1043 10.8599 17.4132 11.1688C17.7221 11.4777 18.2229 11.4777 18.5319 11.1688L19.0509 10.6498C19.8769 11.6851 20.4237 12.9553 20.5756 14.3438H19.8281C19.3913 14.3438 19.0371 14.6979 19.0371 15.1348C19.0371 15.5716 19.3913 15.9205 19.8281 15.9205H20.5749C20.4227 17.2916 19.8796 18.5515 19.0597 19.5758Z" fill="white"/>
<path d="M23.568 6.13269L24.1273 6.69205C24.4363 7.00102 24.9371 7.00086 25.246 6.69205C25.5549 6.38313 25.5549 5.88231 25.246 5.57339C24.9803 5.30777 23.281 3.6084 23.0086 3.33603C22.6998 3.02711 22.1989 3.02711 21.89 3.33603C21.5811 3.64495 21.5811 4.14577 21.89 4.45468L22.4493 5.01404L21.2962 6.16718C19.3291 4.43406 16.8894 3.41587 14.291 3.24369V1.58203H16.6641C17.1009 1.58203 17.4551 1.22787 17.4551 0.791016C17.4551 0.354164 17.1009 0 16.6641 0H10.3359C9.89909 0 9.54493 0.354164 9.54493 0.791016C9.54493 1.22787 9.89909 1.58203 10.3359 1.58203H12.709V3.24369C10.1107 3.41582 7.67091 4.43406 5.70381 6.16718L4.55067 5.01404L5.11002 4.45468C5.41894 4.14577 5.41894 3.64495 5.11002 3.33603C4.80116 3.02711 4.30028 3.02716 3.99137 3.33603C3.72574 3.60165 2.02638 5.30102 1.75406 5.57339C1.44514 5.88231 1.44514 6.38313 1.75406 6.69205C2.06292 7.00096 2.56379 7.00096 2.87271 6.69205L3.43207 6.13269L4.587 7.28763C2.67818 9.46703 1.63477 12.2247 1.63477 15.1348C1.63477 21.6773 6.95752 27 13.5 27C20.0425 27 25.3652 21.6773 25.3652 15.1348C25.3652 12.2247 24.3218 9.46703 22.4131 7.28763L23.568 6.13269ZM23.7832 15.1348C23.7832 20.8049 19.1702 25.418 13.5 25.418C7.82985 25.418 3.2168 20.8049 3.2168 15.1348C3.2168 9.4355 7.82985 4.79883 13.5 4.79883C19.1702 4.79883 23.7832 9.4355 23.7832 15.1348Z" fill="white"/>
</svg>
