<svg width="17" height="15" viewBox="0 0 17 15" fill="none" xmlns="http://www.w3.org/2000/svg">
<g clip-path="url(#clip0_3_117)">
<path d="M15.3 3H11.9V1.75H14.45C14.62 1.75 14.7333 1.65 14.7333 1.5C14.7333 0.65 13.9967 0 13.0333 0H1.7C0.368333 0 0 0.975 0 1.5V14.75C0 14.9 0.113333 15 0.283333 15H2.55H11.6167H13.8833C14.0533 15 14.1667 14.9 14.1667 14.75V4.75H16.7167C16.8867 4.75 17 4.65 17 4.5C17 3.65 16.2633 3 15.3 3ZM14.1383 1.25H11.9283C11.9567 1.15 12.0133 1.05 12.07 0.95L12.0983 0.925C12.1267 0.875 12.155 0.85 12.2117 0.825C12.24 0.8 12.24 0.8 12.2683 0.775C12.2967 0.75 12.325 0.725 12.3817 0.7C12.41 0.7 12.41 0.675 12.4383 0.675C12.4667 0.65 12.5233 0.625 12.58 0.625C12.6083 0.625 12.6083 0.6 12.6367 0.6C12.6933 0.575 12.75 0.575 12.7783 0.55C12.8067 0.55 12.8067 0.55 12.835 0.55C12.8917 0.55 12.9767 0.525 13.0617 0.525C13.5717 0.5 14.025 0.825 14.1383 1.25ZM0.566667 1.5C0.566667 1.45 0.566667 0.5 1.7 0.5H11.7583C11.5033 0.75 11.3333 1.1 11.3333 1.5V3H3.96667C2.635 3 2.26667 3.975 2.26667 4.5V14.5H0.566667V1.5ZM13.6 14.5H11.6167H2.83333V4.5C2.83333 4.45 2.83333 3.5 3.96667 3.5H14.025C13.77 3.75 13.6 4.1 13.6 4.5V14.5ZM14.195 4.25C14.2233 4.15 14.28 4.05 14.3367 3.95L14.365 3.925C14.3933 3.875 14.4217 3.85 14.4783 3.825C14.5067 3.8 14.5067 3.8 14.535 3.775C14.5633 3.75 14.5917 3.725 14.6483 3.7C14.6767 3.7 14.6767 3.675 14.705 3.675C14.7333 3.65 14.79 3.625 14.8467 3.625C14.875 3.625 14.875 3.6 14.9033 3.6C14.96 3.575 15.0167 3.575 15.045 3.55C15.0733 3.55 15.0733 3.55 15.1017 3.55C15.1583 3.55 15.2433 3.525 15.3283 3.525C15.8667 3.525 16.32 3.85 16.4333 4.275H14.195V4.25Z" fill="white"/>
<path d="M12.4667 8.75H11.05V9.25H12.1833V11.25H8.78335C8.61335 11.25 8.50002 11.35 8.50002 11.5V13.25H7.65002V12C7.65002 11.85 7.53668 11.75 7.36668 11.75H4.25002V11.25H3.68335V13.5C3.68335 13.65 3.79668 13.75 3.96668 13.75H12.4667C12.6367 13.75 12.75 13.65 12.75 13.5V9C12.75 8.85 12.6367 8.75 12.4667 8.75ZM4.25002 12.25H7.08335V13.25H4.25002V12.25ZM9.06668 13.25V11.75H12.1833V13.25H9.06668Z" fill="white"/>
<path d="M4.25002 9.25H9.35002V8.75H3.96668C3.79668 8.75 3.68335 8.85 3.68335 9V9.75H4.25002V9.25Z" fill="white"/>
<path d="M10.4834 10.5V7.85L10.8517 8.175L11.2484 7.825L10.3984 7.075C10.285 6.975 10.115 6.975 10.0017 7.075L9.15169 7.825L9.54836 8.175L9.91669 7.85V10.25H3.40002V10.75H10.2C10.37 10.75 10.4834 10.65 10.4834 10.5Z" fill="white"/>
<path d="M10.2 12.25H9.63336V12.75H10.2V12.25Z" fill="white"/>
<path d="M11.6167 12.25H11.05V12.75H11.6167V12.25Z" fill="white"/>
<path d="M5.66667 4.5H3.96667V5H5.66667V4.5Z" fill="white"/>
<path d="M8.50001 5.5H3.96667V6H8.50001V5.5Z" fill="white"/>
<path d="M10.2 1H7.93335V1.5H10.2V1Z" fill="white"/>
<path d="M10.2 2H6.79999V2.5H10.2V2Z" fill="white"/>
<path d="M11.6167 4.5H11.05V5H11.6167V4.5Z" fill="white"/>
<path d="M12.75 4.5H12.1833V5H12.75V4.5Z" fill="white"/>
<path d="M11.6167 5.5H11.05V6H11.6167V5.5Z" fill="white"/>
<path d="M12.75 5.5H12.1833V6H12.75V5.5Z" fill="white"/>
</g>
<defs>
<clipPath id="clip0_3_117">
<rect width="17" height="15" fill="white"/>
</clipPath>
</defs>
</svg>
