<svg width="40" height="40" viewBox="0 0 40 40" fill="none" xmlns="http://www.w3.org/2000/svg">
<g clip-path="url(#clip0_1_4)">
<path d="M20 40C31.0457 40 40 31.0457 40 20C40 8.95431 31.0457 0 20 0C8.95431 0 0 8.95431 0 20C0 31.0457 8.95431 40 20 40Z" fill="#4EBD9E"/>
<path d="M36.9976 18.6224H17.7503C16.438 18.6224 15.3757 19.6847 15.3757 20.997V33.1203C15.3757 34.4326 16.438 35.4949 17.7503 35.4949H26.5616L36.1853 39.3694V35.4949H36.9977C38.31 35.4949 39.3723 34.4325 39.3723 33.1203V20.9971C39.3723 19.6847 38.3099 18.6224 36.9976 18.6224Z" fill="white"/>
<path d="M35.9353 39.9318L26.4367 36.1199H17.7503C16.063 36.1199 14.7508 34.7451 14.7508 33.1203V20.9971C14.7508 19.3098 16.1256 17.9975 17.7503 17.9975H36.9976C38.6849 17.9975 39.9972 19.3723 39.9972 20.9971V33.1203C39.9972 34.8076 38.6224 36.1199 36.9976 36.1199H36.8101V39.3694C36.8101 39.5569 36.6852 39.7444 36.5601 39.8694C36.3727 39.9944 36.1228 40.0569 35.9353 39.9318ZM17.7503 19.2473C16.7505 19.2473 16.0006 20.0597 16.0006 20.997V33.1203C16.0006 34.1201 16.813 34.87 17.7503 34.87H26.5616C26.6241 34.87 26.7491 34.87 26.8116 34.9325L35.5604 38.432V35.4949C35.5604 35.12 35.8104 34.87 36.1853 34.87H36.9977C37.9975 34.87 38.7474 34.0576 38.7474 33.1203V20.9971C38.7474 19.9972 37.935 19.2473 36.9977 19.2473H17.7503V19.2473Z" fill="#183651"/>
<path d="M27.1865 32.9954H17.8753V21.122H36.8726V32.9954H33.6856V35.245L27.1865 32.9954Z" fill="#F05F50"/>
<path d="M3.62734 0.624924H27.7489C29.3737 0.624924 30.7485 1.93728 30.7485 3.62448V18.8098C30.7485 20.4346 29.4361 21.8094 27.7489 21.8094H16.6879L4.62719 28.1835V21.8094H3.62734C2.00257 21.8094 0.627777 20.497 0.627777 18.8098V3.62448C0.627698 1.9372 1.94005 0.624924 3.62734 0.624924Z" fill="white"/>
<path d="M4.3143 28.7459C4.12684 28.621 4.00188 28.4335 4.00188 28.1835V22.4343H3.62695C1.62724 22.4343 0.00247192 20.8095 0.00247192 18.8098V3.62448C0.00247192 1.62477 1.62724 0 3.62695 0H27.7485C29.7482 0 31.373 1.62477 31.373 3.62448V18.8098C31.373 20.8095 29.7482 22.4343 27.7485 22.4343H16.8126L4.87679 28.7459C4.68924 28.871 4.50177 28.8084 4.3143 28.7459ZM3.62695 1.24984C2.3146 1.24984 1.25231 2.31221 1.25231 3.62448V18.8098C1.25231 20.1222 2.31468 21.1845 3.62695 21.1845H4.6268C5.00174 21.1845 5.25172 21.4344 5.25172 21.8094V27.1837L16.4377 21.247C16.5002 21.1845 16.6251 21.1845 16.7501 21.1845H27.811C29.1234 21.1845 30.1857 20.1221 30.1857 18.8098V3.62448C30.1857 2.31213 29.1233 1.24984 27.811 1.24984H3.62695Z" fill="#183651"/>
<path d="M7.12679 19.3098H3.62735C3.37736 19.3098 3.12738 19.0598 3.12738 18.8098V3.62448C3.12738 3.3745 3.37736 3.12451 3.62735 3.12451H27.7489C27.9989 3.12451 28.2489 3.3745 28.2489 3.62448V18.8098C28.2489 19.0598 27.9989 19.3098 27.7489 19.3098H16.063L7.12679 24.0592V19.3098Z" fill="#2AA0DA"/>
<path d="M10.2514 16.8101L14.1883 11.1859V5.74921C14.1883 5.24925 13.7509 4.81187 13.251 4.81187H18.0628C17.5628 4.81187 17.1255 5.24933 17.1255 5.74921V11.1859L21.0624 16.8101C21.4374 17.3101 21.0624 17.9974 20.4375 17.9974H10.8763C10.2514 18.0599 9.87643 17.3725 10.2514 16.8101Z" fill="white"/>
<path d="M13.376 12.3733H17.9379L21.0624 16.8726C21.4374 17.3726 21.0624 18.06 20.4375 18.06H10.8763C10.2514 18.06 9.87643 17.3725 10.2514 16.8726L13.376 12.3733Z" fill="#E1E6E8"/>
<path d="M27.5614 28.871H26.6241V28.371C26.6241 28.1835 26.6241 27.9961 26.6866 27.871C26.7491 27.7461 26.8741 27.621 26.999 27.4336L27.5614 26.8712C27.6864 26.7462 27.7489 26.5587 27.7489 26.3712C27.7489 26.1837 27.6864 25.9963 27.5614 25.8712C27.4365 25.7463 27.249 25.6838 27.0615 25.6838C26.874 25.6838 26.6865 25.7463 26.5615 25.8712C26.4366 25.9962 26.374 26.1837 26.3115 26.3712H25.3117C25.3742 25.8712 25.5617 25.4963 25.8741 25.2464C26.1865 24.9964 26.624 24.8089 27.0614 24.8089C27.5614 24.8089 27.9363 24.9339 28.2487 25.1839C28.5611 25.4339 28.6862 25.8088 28.6862 26.2462C28.6862 26.5587 28.6237 26.8087 28.4362 27.0586C28.3112 27.1836 28.2487 27.3086 28.1862 27.3086C28.1237 27.3711 28.0613 27.4336 27.9987 27.4961C27.9362 27.5586 27.8113 27.621 27.7488 27.6836C27.6862 27.7461 27.6238 27.8085 27.6238 27.871C27.4989 27.996 27.4988 28.1834 27.4988 28.371V28.871H27.5614ZM27.124 30.6832C26.9365 30.6832 26.8116 30.6207 26.6865 30.4957C26.5616 30.3708 26.4991 30.2457 26.4991 30.0583C26.4991 29.8708 26.5616 29.7459 26.6865 29.6208C26.8115 29.4959 26.9365 29.4334 27.124 29.4334C27.3115 29.4334 27.4364 29.4959 27.5614 29.6208C27.6864 29.7458 27.7489 29.8708 27.7489 30.0583C27.7489 30.2457 27.6864 30.3707 27.5614 30.4957C27.4364 30.6207 27.2489 30.6832 27.124 30.6832Z" fill="white"/>
<path d="M24.4368 6.74907H23.187V7.99891H24.4368V6.74907Z" fill="#183651"/>
<path d="M24.4368 9.81114H23.187V11.061H24.4368V9.81114Z" fill="#183651"/>
<path d="M24.4368 12.9357H23.187V14.1855H24.4368V12.9357Z" fill="#183651"/>
<path d="M8.18914 6.74907H6.9393V7.99891H8.18914V6.74907Z" fill="#183651"/>
<path d="M8.18914 9.81114H6.9393V11.061H8.18914V9.81114Z" fill="#183651"/>
<path d="M8.18914 12.9357H6.9393V14.1855H8.18914V12.9357Z" fill="#183651"/>
</g>
<defs>
<clipPath id="clip0_1_4">
<rect width="40" height="40" fill="white"/>
</clipPath>
</defs>
</svg>
